<?xml version="1.0" encoding="UTF-8" standalone="no"?><!-- Generator: Gravit.io --><svg xmlns="http://www.w3.org/2000/svg" xmlns:xlink="http://www.w3.org/1999/xlink" style="isolation:isolate" viewBox="897 1351 512 512" width="512pt" height="512pt"><defs><clipPath id="_clipPath_7VI49LrOhOjn68Y03CK5VNDAh1QnHGsQ"><rect x="897" y="1351" width="512" height="512"/></clipPath></defs><g clip-path="url(#_clipPath_7VI49LrOhOjn68Y03CK5VNDAh1QnHGsQ)"><g><defs><filter id="65OH8Z5uG8q0QfruTSE2PcyKuLHlzsFB" x="-200%" y="-200%" width="400%" height="400%" filterUnits="objectBoundingBox" color-interpolation-filters="sRGB"><feGaussianBlur xmlns="http://www.w3.org/2000/svg" in="SourceGraphic" stdDeviation="0.8587218125678057"/><feOffset xmlns="http://www.w3.org/2000/svg" dx="0" dy="0" result="pf_100_offsetBlur"/><feFlood xmlns="http://www.w3.org/2000/svg" flood-color="#000000" flood-opacity="0.65"/><feComposite xmlns="http://www.w3.org/2000/svg" in2="pf_100_offsetBlur" operator="in" result="pf_100_dropShadow"/><feBlend xmlns="http://www.w3.org/2000/svg" in="SourceGraphic" in2="pf_100_dropShadow" mode="normal"/></filter></defs><g filter="url(#65OH8Z5uG8q0QfruTSE2PcyKuLHlzsFB)"><mask id="_mask_5PeBMC6EhfL718BIjnfcey6taXhuaR4i"><circle vector-effect="non-scaling-stroke" cx="1153" cy="1607" r="232.00000000000006" fill="white" stroke="none"/></mask><circle vector-effect="non-scaling-stroke" cx="1153" cy="1607" r="232.00000000000006" fill="rgb(179,255,0)"/><circle vector-effect="non-scaling-stroke" cx="1153" cy="1607" r="232.00000000000006" fill="rgb(179,255,0)" mask="url(#_mask_5PeBMC6EhfL718BIjnfcey6taXhuaR4i)" stroke-width="30" stroke="rgb(0,0,0)" stroke-linejoin="miter" stroke-linecap="square" stroke-miterlimit="3"/></g><g><g><g><path d=" M 1053.003 1646.999 C 1046.692 1646.999 1041.576 1641.887 1041.576 1635.572 L 1041.576 1578.438 C 1041.576 1572.127 1046.692 1567.011 1053.003 1567.011 C 1059.314 1567.011 1064.43 1572.127 1064.43 1578.438 L 1064.43 1635.572 C 1064.43 1641.873 1059.314 1646.999 1053.003 1646.999 Z " fill="rgb(0,0,0)"/></g><g><path d=" M 1086.335 1675.571 C 1080.025 1675.571 1074.909 1670.455 1074.909 1664.144 L 1074.909 1549.856 C 1074.909 1543.545 1080.025 1538.429 1086.335 1538.429 C 1092.646 1538.429 1097.762 1543.545 1097.762 1549.856 L 1097.762 1664.144 C 1097.767 1670.455 1092.646 1675.571 1086.335 1675.571 Z " fill="rgb(0,0,0)"/></g><g><path d=" M 1119.668 1661.28 C 1113.357 1661.28 1108.241 1656.164 1108.241 1649.853 L 1108.241 1564.147 C 1108.241 1557.836 1113.357 1552.72 1119.668 1552.72 C 1125.979 1552.72 1131.099 1557.836 1131.099 1564.147 L 1131.099 1649.853 C 1131.095 1656.164 1125.979 1661.28 1119.668 1661.28 Z " fill="rgb(0,0,0)"/></g><g><path d=" M 1153 1689.857 C 1146.689 1689.857 1141.573 1684.745 1141.573 1678.43 L 1141.573 1535.575 C 1141.573 1529.264 1146.689 1524.148 1153 1524.148 C 1159.311 1524.148 1164.427 1529.264 1164.427 1535.575 L 1164.427 1678.425 C 1164.427 1684.741 1159.311 1689.857 1153 1689.857 Z " fill="rgb(0,0,0)"/></g><g><path d=" M 1186.328 1718.424 C 1180.021 1718.424 1174.901 1713.308 1174.901 1706.997 L 1174.901 1507.003 C 1174.901 1500.692 1180.021 1495.576 1186.328 1495.576 C 1192.643 1495.576 1197.754 1500.692 1197.754 1507.003 L 1197.754 1706.997 C 1197.754 1713.308 1192.643 1718.424 1186.328 1718.424 Z " fill="rgb(0,0,0)"/></g><g><path d=" M 1219.669 1675.571 C 1213.354 1675.571 1208.242 1670.455 1208.242 1664.144 L 1208.242 1549.856 C 1208.242 1543.545 1213.354 1538.429 1219.669 1538.429 C 1225.975 1538.429 1231.096 1543.545 1231.096 1549.856 L 1231.096 1664.144 C 1231.096 1670.455 1225.975 1675.571 1219.669 1675.571 Z " fill="rgb(0,0,0)"/></g><g><path d=" M 1252.997 1632.713 C 1246.686 1632.713 1241.57 1627.597 1241.57 1621.291 L 1241.57 1592.719 C 1241.57 1586.408 1246.686 1581.292 1252.997 1581.292 C 1259.308 1581.292 1264.424 1586.408 1264.424 1592.719 L 1264.424 1621.291 C 1264.424 1627.597 1259.308 1632.713 1252.997 1632.713 Z " fill="rgb(0,0,0)"/></g></g></g></g></g></svg>